<?xml version="1.0" encoding="utf-8"?>
<svg version="1.1" id="idoc-soft" xmlns="http://www.w3.org/2000/svg" xmlns:xlink="http://www.w3.org/1999/xlink" x="0px" y="0px" viewBox="0 0 512 512" style="enable-background:new 0 0 512 512;" xml:space="preserve">
<style type="text/css">
	.icon-fill{fill:#0f5198;}
</style>
<path id="idoc-soft-1" class="icon-fill" d="M249.1,371.7c0,3.5-2.8,6.4-6.4,6.4c-3.5,0-6.4-2.9-6.4-6.4s2.8-6.4,6.4-6.4
	C246.3,365.3,249.2,368.2,249.1,371.7z M382.9,103.7v316.6c0,3.5-2.8,6.4-6.4,6.4H144.7c-16.9,0-30.7-13.8-30.7-30.7V111.6
	c0-8,6.5-14.4,14.4-14.4h248.2C380.2,97.2,383.1,100.1,382.9,103.7z M126.9,371c5-3.6,11.1-5.7,17.8-5.7h10.8V110.1h-27.1
	c-0.8,0-1.5,0.6-1.5,1.5V371z M370.2,110.1H168.4v255.2h45.4c3.5,0,6.4,2.8,6.4,6.4c0,3.5-2.8,6.4-6.4,6.4h-69.1
	c-9.8,0-17.8,8-17.8,17.8s8,17.8,17.8,17.8h225.5v-35.6h-98.6c-3.5,0-6.4-2.9-6.4-6.4s2.8-6.4,6.4-6.4h98.6V110.1z M339.8,151.8
	v97.8c0,2.9-2.5,5.2-5.4,5.2h-56v28.6c9,0,16.6,0,20.2,0c7.7,0,11.6,6.5,13.1,9.9c0.4,1-0.3,2.1-1.4,2.1h-94.9c-1,0-1.7-1.1-1.3-2
	c1.5-3.4,5.7-10,15-10c3.7,0,10.4,0,18.2,0v-28.6h-52.8c-2.9,0-5.2-2.3-5.2-5.2v-97.7c0-2.9,2.3-5.2,5.2-5.2h140
	C337.5,146.6,339.9,148.9,339.8,151.8z M228.2,286.2c-5,0-9.9,6.2-9.9,6.2h89.4c0,0-4.4-6.2-10.2-6.2
	C291.8,286.2,233.2,286.2,228.2,286.2z M275.8,254.8h-25.7v28.6c8.2,0,17.4,0,25.7,0V254.8z M337.1,246.8v-92.3
	c0-2.9-2.3-5.2-5.2-5.2H197.3c-2.9,0-5.2,2.3-5.2,5.2v92.3c0,2.9,2.3,5.2,5.2,5.2H332C334.8,252,337.1,249.7,337.1,246.8
	L337.1,246.8z M192.1,163.8h145V161h-145V163.8z M249.9,235h74.6v-2.7h-74.6V235z M318.3,233.7h6.3v-53.5h-6.3V233.7z M305.7,233.7
	h6.3v-40h-6.3V233.7z M293.9,233.7h6.3v-53.5h-6.3V233.7z M281.4,233.7h6.3v-40h-6.3V233.7z M269.1,233.6h6.3v-31.4h-6.3V233.6z
	 M256.5,233.7h6.3v-23.5h-6.3V233.7z M250.6,169.6v36.7h-44.2v-36.7C206.4,169.6,250.6,169.6,250.6,169.6z M247.8,172h-38.6v32h38.6
	V172z M213.4,176.9h29.7v-1h-29.7V176.9z M213.4,180.2h29.7v-1h-29.7V180.2z M213.4,183.6h19v-1h-19V183.6z M213.4,186.9h19v-1h-19
	V186.9z M213.4,190.7h27.1v-1h-27.1V190.7z M213.4,194h27.1v-1h-27.1V194z M325.4,158.7l5.5-5.5l-0.8-0.8l-5.5,5.5L325.4,158.7z
	 M330.3,158.7l0.8-0.8l-5.5-5.5l-0.8,0.8L330.3,158.7z M302.9,158.4h6.1v-0.8h-6.1V158.4z M319.9,152.6v6.1h-6.1v-6.1H319.9z
	 M319.2,153.4h-4.5v4.5h4.5V153.4z"/>
</svg>
